{
  "accessors": [
    {
      "bufferView": 1,
      "componentType": 5126,
      "count": 65532,
      "max": [
        22726.466796875,
        1699.796875,
        2931.678955078125
      ],
      "min": [
        12923.025390625,
        572.594482421875,
        0.0
      ],
      "type": "VEC3"
    },
    {
      "bufferView": 1,
      "byteOffset": 786384,
      "componentType": 5126,
      "count": 65532,
      "max": [
        0.9999704360961914,
        0.9999992251396179,
        0.9999990463256836
      ],
      "min": [
        -0.9999953508377075,
        -0.9999943375587463,
        -0.999993622303009
      ],
      "type": "VEC3"
    },
    {
      "bufferView": 0,
      "componentType": 5125,
      "count": 369558,
      "type": "SCALAR"
    },
    {
      "bufferView": 1,
      "byteOffset": 1572768,
      "componentType": 5126,
      "count": 65532,
      "max": [
        14211.2978515625,
        1654.859375,
        3102.157958984375
      ],
      "min": [
        10624.1943359375,
        404.896484375,
        2492.9375
      ],
      "type": "VEC3"
    },
    {
      "bufferView": 1,
      "byteOffset": 2359152,
      "componentType": 5126,
      "count": 65532,
      "max": [
        0.9999906420707703,
        0.9999896883964539,
        0.9999990463256836
      ],
      "min": [
        -0.999983012676239,
        -0.9999943375587463,
        -0.9999508261680603
      ],
      "type": "VEC3"
    },
    {
      "bufferView": 0,
      "byteOffset": 1478232,
      "componentType": 5125,
      "count": 360783,
      "type": "SCALAR"
    },
    {
      "bufferView": 1,
      "byteOffset": 3145536,
      "componentType": 5126,
      "count": 65532,
      "max": [
        11712.599609375,
        1827.1142578125,
        3504.691650390625
      ],
      "min": [
        9279.123046875,
        0.0,
        1984.1416015625
      ],
      "type": "VEC3"
    },
    {
      "bufferView": 1,
      "byteOffset": 3931920,
      "componentType": 5126,
      "count": 65532,
      "max": [
        0.9999844431877136,
        0.9999834299087524,
        0.9999890327453613
      ],
      "min": [
        -0.9999709725379944,
        -0.9999467134475708,
        -0.9999867081642151
      ],
      "type": "VEC3"
    },
    {
      "bufferView": 0,
      "byteOffset": 2921364,
      "componentType": 5125,
      "count": 354225,
      "type": "SCALAR"
    },
    {
      "bufferView": 1,
      "byteOffset": 4718304,
      "componentType": 5126,
      "count": 65532,
      "max": [
        10459.279296875,
        2315.58740234375,
        3409.154052734375
      ],
      "min": [
        7919.02734375,
        12.818115234375,
        2036.1998291015625
      ],
      "type": "VEC3"
    },
    {
      "bufferView": 1,
      "byteOffset": 5504688,
      "componentType": 5126,
      "count": 65532,
      "max": [
        0.9999687075614929,
        0.9999997019767761,
        0.9999802112579346
      ],
      "min": [
        -0.9999991059303284,
        -0.9999749064445496,
        -0.9999662041664124
      ],
      "type": "VEC3"
    },
    {
      "bufferView": 0,
      "byteOffset": 4338264,
      "componentType": 5125,
      "count": 351003,
      "type": "SCALAR"
    },
    {
      "bufferView": 1,
      "byteOffset": 6291072,
      "componentType": 5126,
      "count": 65532,
      "max": [
        9806.9599609375,
        2325.32763671875,
        3415.479736328125
      ],
      "min": [
        5376.2353515625,
        101.420654296875,
        2008.825927734375
      ],
      "type": "VEC3"
    },
    {
      "bufferView": 1,
      "byteOffset": 7077456,
      "componentType": 5126,
      "count": 65532,
      "max": [
        0.999975860118866,
        0.9999651312828064,
        0.9999946355819702
      ],
      "min": [
        -0.9999991059303284,
        -0.9999550580978394,
        -0.9999985694885254
      ],
      "type": "VEC3"
    },
    {
      "bufferView": 0,
      "byteOffset": 5742276,
      "componentType": 5125,
      "count": 332472,
      "type": "SCALAR"
    },
    {
      "bufferView": 1,
      "byteOffset": 7863840,
      "componentType": 5126,
      "count": 65532,
      "max": [
        6793.27880859375,
        1686.054443359375,
        2972.582275390625
      ],
      "min": [
        2681.81787109375,
        677.969482421875,
        1802.630615234375
      ],
      "type": "VEC3"
    },
    {
      "bufferView": 1,
      "byteOffset": 8650224,
      "componentType": 5126,
      "count": 65532,
      "max": [
        0.9999380111694336,
        0.9999973773956299,
        0.9999667406082153
      ],
      "min": [
        -0.9999879598617554,
        -0.9999837279319763,
        -0.999956488609314
      ],
      "type": "VEC3"
    },
    {
      "bufferView": 0,
      "byteOffset": 7072164,
      "componentType": 5125,
      "count": 360645,
      "type": "SCALAR"
    },
    {
      "bufferView": 1,
      "byteOffset": 9436608,
      "componentType": 5126,
      "count": 65532,
      "max": [
        7726.1259765625,
        3924.59326171875,
        3459.549560546875
      ],
      "min": [
        0.0,
        1019.465087890625,
        1029.8084716796875
      ],
      "type": "VEC3"
    },
    {
      "bufferView": 1,
      "byteOffset": 10222992,
      "componentType": 5126,
      "count": 65532,
      "max": [
        0.999959409236908,
        0.9999884963035583,
        0.9999808669090271
      ],
      "min": [
        -0.999955952167511,
        -0.9998911619186401,
        -0.9999969601631165
      ],
      "type": "VEC3"
    },
    {
      "bufferView": 0,
      "byteOffset": 8514744,
      "componentType": 5125,
      "count": 359691,
      "type": "SCALAR"
    },
    {
      "bufferView": 1,
      "byteOffset": 11009376,
      "componentType": 5126,
      "count": 65532,
      "max": [
        10055.826171875,
        3858.56591796875,
        3534.42138671875
      ],
      "min": [
        1969.75732421875,
        238.338623046875,
        1579.446533203125
      ],
      "type": "VEC3"
    },
    {
      "bufferView": 1,
      "byteOffset": 11795760,
      "componentType": 5126,
      "count": 65532,
      "max": [
        0.9999988675117493,
        0.9999765157699585,
        0.9999951720237732
      ],
      "min": [
        -0.9999954700469971,
        -0.9999659657478333,
        -0.9999743103981018
      ],
      "type": "VEC3"
    },
    {
      "bufferView": 0,
      "byteOffset": 9953508,
      "componentType": 5125,
      "count": 332304,
      "type": "SCALAR"
    },
    {
      "bufferView": 1,
      "byteOffset": 12582144,
      "componentType": 5126,
      "count": 35004,
      "max": [
        10424.5517578125,
        4023.479736328125,
        3529.822509765625
      ],
      "min": [
        7610.34375,
        258.872802734375,
        1649.1668701171875
      ],
      "type": "VEC3"
    },
    {
      "bufferView": 1,
      "byteOffset": 13002192,
      "componentType": 5126,
      "count": 35004,
      "max": [
        0.9999990463256836,
        0.9999983310699463,
        0.9999858140945435
      ],
      "min": [
        -0.9999574422836304,
        -0.9998629689216614,
        -0.999907910823822
      ],
      "type": "VEC3"
    },
    {
      "bufferView": 0,
      "byteOffset": 11282724,
      "componentType": 5125,
      "count": 179319,
      "type": "SCALAR"
    }
  ],
  "asset": {
    "extras": {
      "author": "Natural History Museum Vienna (https://sketchfab.com/NHMWien)",
      "license": "CC-BY-NC-4.0 (http://creativecommons.org/licenses/by-nc/4.0/)",
      "source": "https://sketchfab.com/3d-models/diplodocus-carnegii-nhmw-geo-190900040003-1d07ae9e002f4e8ab930dc92d07eb078",
      "title": "Diplodocus carnegii (NHMW-Geo 1909/0004/0003)"
    },
    "generator": "Sketchfab-15.9.0",
    "version": "2.0"
  },
  "bufferViews": [
    {
      "buffer": 0,
      "byteLength": 12000000,
      "name": "floatBufferViews",
      "target": 34963
    },
    {
      "buffer": 0,
      "byteLength": 13422240,
      "byteOffset": 12000000,
      "byteStride": 12,
      "name": "floatBufferViews",
      "target": 34962
    }
  ],
  "buffers": [
    {
      "byteLength": 25422240,
      "uri": "scene.bin"
    }
  ],
  "materials": [
    {
      "doubleSided": true,
      "name": "material_0",
      "pbrMetallicRoughness": {
        "baseColorFactor": [
          0.06509790286784631,
          0.03821509055891485,
          0.014649708437227937,
          1.0
        ],
        "metallicFactor": 0.07395830154418945
      }
    }
  ],
  "meshes": [
    {
      "name": "Object_0",
      "primitives": [
        {
          "attributes": {
            "NORMAL": 1,
            "POSITION": 0
          },
          "indices": 2,
          "material": 0,
          "mode": 4
        }
      ]
    },
    {
      "name": "Object_1",
      "primitives": [
        {
          "attributes": {
            "NORMAL": 4,
            "POSITION": 3
          },
          "indices": 5,
          "material": 0,
          "mode": 4
        }
      ]
    },
    {
      "name": "Object_2",
      "primitives": [
        {
          "attributes": {
            "NORMAL": 7,
            "POSITION": 6
          },
          "indices": 8,
          "material": 0,
          "mode": 4
        }
      ]
    },
    {
      "name": "Object_3",
      "primitives": [
        {
          "attributes": {
            "NORMAL": 10,
            "POSITION": 9
          },
          "indices": 11,
          "material": 0,
          "mode": 4
        }
      ]
    },
    {
      "name": "Object_4",
      "primitives": [
        {
          "attributes": {
            "NORMAL": 13,
            "POSITION": 12
          },
          "indices": 14,
          "material": 0,
          "mode": 4
        }
      ]
    },
    {
      "name": "Object_5",
      "primitives": [
        {
          "attributes": {
            "NORMAL": 16,
            "POSITION": 15
          },
          "indices": 17,
          "material": 0,
          "mode": 4
        }
      ]
    },
    {
      "name": "Object_6",
      "primitives": [
        {
          "attributes": {
            "NORMAL": 19,
            "POSITION": 18
          },
          "indices": 20,
          "material": 0,
          "mode": 4
        }
      ]
    },
    {
      "name": "Object_7",
      "primitives": [
        {
          "attributes": {
            "NORMAL": 22,
            "POSITION": 21
          },
          "indices": 23,
          "material": 0,
          "mode": 4
        }
      ]
    },
    {
      "name": "Object_8",
      "primitives": [
        {
          "attributes": {
            "NORMAL": 25,
            "POSITION": 24
          },
          "indices": 26,
          "material": 0,
          "mode": 4
        }
      ]
    }
  ],
  "nodes": [
    {
      "children": [
        1
      ],
      "matrix": [
        0.0009940584774100966,
        -1.4536136986075614e-06,
        -0.00010883820573868996,
        0.0,
        -7.49767653865878e-06,
        -0.0009984503266596834,
        -5.514394381301593e-05,
        0.0,
        -0.00010858937868667585,
        5.563233684492231e-05,
        -0.000992528843338572,
        0.0,
        0.0,
        0.0,
        0.0,
        1.0
      ],
      "name": "Sketchfab_model"
    },
    {
      "children": [
        2
      ],
      "matrix": [
        1.0,
        0.0,
        0.0,
        0.0,
        0.0,
        1.0,
        0.0,
        0.0,
        0.0,
        0.0,
        1.0,
        0.0,
        -8045.9814453125,
        -3945.8740234375,
        -2653.041015625,
        1.0
      ],
      "name": "skfb_offset"
    },
    {
      "children": [
        3,
        4,
        5,
        6,
        7,
        8,
        9,
        10,
        11
      ],
      "name": "Object_2"
    },
    {
      "mesh": 0,
      "name": "Object_3"
    },
    {
      "mesh": 1,
      "name": "Object_4"
    },
    {
      "mesh": 2,
      "name": "Object_5"
    },
    {
      "mesh": 3,
      "name": "Object_6"
    },
    {
      "mesh": 4,
      "name": "Object_7"
    },
    {
      "mesh": 5,
      "name": "Object_8"
    },
    {
      "mesh": 6,
      "name": "Object_9"
    },
    {
      "mesh": 7,
      "name": "Object_10"
    },
    {
      "mesh": 8,
      "name": "Object_11"
    }
  ],
  "scene": 0,
  "scenes": [
    {
      "name": "Sketchfab_Scene",
      "nodes": [
        0
      ]
    }
  ]
}
