<?xml version="1.0" standalone="no"?>
<!DOCTYPE svg PUBLIC "-//W3C//DTD SVG 20010904//EN"
 "http://www.w3.org/TR/2001/REC-SVG-20010904/DTD/svg10.dtd">
<svg version="1.0" xmlns="http://www.w3.org/2000/svg"
 width="2000.000000pt" height="1500.000000pt" viewBox="0 0 2000.000000 1500.000000"
 preserveAspectRatio="xMidYMid meet">

<g transform="translate(0.000000,1500.000000) scale(0.100000,-0.100000)"
fill="white" stroke="none">
<path d="M8290 8059 c-536 -1303 -975 -2369 -976 -2369 -2 0 -36 7 -76 16 -40
9 -118 17 -173 18 -151 2 -201 -31 -212 -137 -4 -43 -1 -58 19 -87 44 -65 128
-104 251 -117 57 -6 58 -7 52 -32 -12 -47 -131 -276 -199 -382 -101 -157 -116
-232 -59 -300 35 -41 74 -59 129 -59 113 0 189 77 255 257 12 32 62 155 111
273 l89 215 1032 -3 c568 -1 1037 -4 1042 -6 6 -2 82 -160 170 -350 l160 -346
1017 0 1017 0 -33 73 c-98 213 -2620 5665 -2630 5683 -9 19 -140 -293 -986
-2347z m670 -1364 c265 -572 485 -1046 488 -1053 4 -12 -132 -13 -814 -8 -741
5 -983 11 -999 28 -3 3 177 457 401 1009 475 1174 433 1073 438 1068 2 -2 220
-472 486 -1044z"/>
<path d="M4235 10239 c-115 -12 -254 -36 -375 -65 -475 -116 -882 -417 -1070
-794 -43 -86 -105 -277 -120 -370 -16 -104 -14 -356 5 -481 50 -338 196 -624
487 -952 216 -243 407 -411 973 -855 497 -391 562 -443 730 -593 240 -213 376
-375 425 -507 99 -264 0 -486 -280 -631 -173 -90 -398 -131 -717 -131 -307 0
-648 75 -951 209 -173 76 -241 120 -477 306 -82 64 -147 89 -216 83 -91 -9
-131 -61 -132 -174 -1 -99 37 -152 187 -258 340 -243 795 -392 1333 -437 178
-15 589 -6 728 15 554 84 1036 333 1325 685 251 305 353 607 354 1046 1 220
-10 299 -66 475 -144 457 -564 948 -1418 1658 -96 80 -227 189 -290 241 -268
224 -517 462 -607 581 -73 97 -97 161 -101 275 -5 127 18 196 87 265 92 92
211 129 442 137 244 9 465 -25 703 -107 205 -71 339 -142 470 -252 72 -60 122
-87 179 -94 87 -12 149 39 162 137 18 128 -114 250 -409 379 -261 115 -506
183 -748 209 -112 13 -494 12 -613 0z"/>
<path d="M16814 10201 c-20 -12 -38 -36 -49 -65 -19 -49 -18 -112 4 -341 6
-55 10 -322 11 -592 l0 -493 -985 0 -985 0 0 735 0 735 -1000 0 -1000 0 0
-2765 0 -2765 1000 0 1000 0 0 1890 0 1890 985 0 986 0 -4 -1687 c-3 -1572 -5
-1694 -21 -1773 -26 -124 -26 -236 0 -280 55 -94 185 -110 267 -32 63 59 58
-91 57 1927 l-1 1843 58 7 c280 29 346 65 347 186 0 60 -30 102 -90 125 -44
17 -53 17 -173 1 -69 -10 -130 -17 -135 -17 -4 0 -7 306 -5 688 4 770 9 719
-68 772 -50 34 -154 40 -199 11z"/>
</g>
</svg>
